<svg xmlns="http://www.w3.org/2000/svg" width="180" height="44" viewBox="0 0 180 44" fill="none">
  <rect x="0" y="2" width="40" height="40" rx="10" fill="url(#g)"/>
  <path d="M20 11c-4 0-8 2.5-8 7 0 3 2 5.5 4 6.5l-1.5 5.5c-.2.8.5 1.5 1.3 1.2L20 28.5l4.2 2.7c.8.3 1.5-.4 1.3-1.2L24 24.5c2-1 4-3.5 4-6.5 0-4.5-4-7-8-7zm0 3c2.5 0 5 1.5 5 4s-2.5 4-5 4-5-1.5-5-4 2.5-4 5-4z" fill="#fff"/>
  <defs>
    <linearGradient id="g" x1="0" y1="0" x2="40" y2="40" gradientUnits="userSpaceOnUse">
      <stop stop-color="#1e5fb3"/>
      <stop offset="1" stop-color="#4a8bd9"/>
    </linearGradient>
  </defs>
  <text x="48" y="22" font-family="-apple-system, Segoe UI, Roboto, sans-serif" font-size="18" font-weight="700" fill="#1a2638" letter-spacing="-0.3">Ангел-Дент</text>
  <text x="48" y="36" font-family="-apple-system, Segoe UI, Roboto, sans-serif" font-size="9" font-weight="500" fill="#5a6779" letter-spacing="1.2">СТОМАТОЛОГИЯ В РЕУТОВЕ</text>
</svg>
